<svg width="30" height="30" viewBox="0 0 30 30" fill="none" xmlns="http://www.w3.org/2000/svg">
<path d="M17.5115 14.9774C17.5115 13.6327 16.3871 12.5424 15 12.5424C13.6131 12.5424 12.4885 13.6327 12.4885 14.9774C12.4885 16.3224 13.6131 17.4126 15 17.4126C16.3871 17.4126 17.5115 16.3224 17.5115 14.9774Z" fill="#53C1DE"/>
<path fill-rule="evenodd" clip-rule="evenodd" d="M23.1566 10.4566C23.687 8.36698 24.3536 4.49201 22.0035 3.17827C19.6643 1.87026 16.6204 4.37665 15.013 5.88111C13.4104 4.39164 10.2809 1.89597 7.93278 3.21388C5.59454 4.52628 6.3156 8.337 6.85772 10.4397C4.67654 11.0404 0.9375 12.3341 0.9375 14.9774C0.9375 17.6132 4.67265 19.0207 6.84092 19.6208C6.29679 21.7352 5.61184 25.4915 7.95307 26.801C10.31 28.1186 13.4297 25.6823 15.0519 24.1614C16.6696 25.6747 19.6843 28.127 22.0239 26.8138C24.3709 25.4965 23.7596 21.6735 23.2175 19.5586C25.3193 18.9572 29.0625 17.5803 29.0625 14.9774C29.0625 12.3595 25.3034 11.0553 23.1566 10.4566ZM22.8902 18.4378C22.5342 17.3452 22.0538 16.1834 21.466 14.9832C22.027 13.8113 22.4888 12.6645 22.8349 11.579C24.4087 12.0214 27.8611 13.0325 27.8611 14.9774C27.8611 16.9406 24.5481 17.9613 22.8902 18.4378ZM21.4219 25.8056C19.6763 26.7853 17.0832 24.4402 15.8886 23.3258C16.6811 22.4854 17.4731 21.5083 18.2461 20.4233C19.6058 20.3064 20.8903 20.1152 22.0553 19.8541C22.4368 21.3501 23.1752 24.8215 21.4219 25.8056ZM8.55339 25.7917C6.80759 24.8156 7.60554 21.4637 8.00585 19.9062C9.15782 20.1533 10.4331 20.3311 11.796 20.4382C12.574 21.4999 13.389 22.4757 14.2103 23.3303C13.1956 24.282 10.3073 26.7722 8.55339 25.7917ZM2.1389 14.9774C2.1389 13.0069 5.57069 12.0031 7.18035 11.5618C7.53235 12.6717 7.99402 13.8322 8.55115 15.0058C7.9868 16.1968 7.51853 17.3757 7.1633 18.4987C5.62846 18.0727 2.1389 16.9492 2.1389 14.9774ZM8.53472 4.22207C10.2877 3.23827 13.0075 5.63421 14.1712 6.71262C13.3541 7.56332 12.5467 8.53181 11.7753 9.58734C10.4526 9.70622 9.18633 9.89709 8.02227 10.1528C7.58555 8.45691 6.78367 5.2048 8.53472 4.22207ZM19.1056 10.8535C20.003 10.9633 20.8628 11.1094 21.67 11.2881C21.4277 12.0412 21.1256 12.8288 20.7698 13.6362C20.2541 12.6875 19.7005 11.7577 19.1056 10.8535ZM15.0134 7.54509C15.5676 8.12716 16.1226 8.77715 16.6686 9.48234C15.5611 9.43153 14.4518 9.43134 13.3444 9.48159C13.8908 8.78295 14.4506 8.13392 15.0134 7.54509ZM9.24047 13.6354C8.89058 12.8308 8.59123 12.0397 8.34677 11.2758C9.14923 11.1017 10.005 10.9594 10.8966 10.8514C10.2999 11.7536 9.74728 12.683 9.24047 13.6354ZM10.9222 19.1866C10.0012 19.0869 9.13243 18.9518 8.33021 18.7825C8.57854 18.0052 8.88448 17.197 9.24184 16.3751C9.75562 17.3375 10.3167 18.2758 10.9222 19.1866ZM15.0467 22.492C14.4773 21.8962 13.9092 21.2373 13.3545 20.5285C14.4682 20.5709 15.5842 20.571 16.6978 20.5228C16.1501 21.2445 15.5971 21.9044 15.0467 22.492ZM20.7813 16.3333C21.1572 17.1641 21.4741 17.9678 21.7258 18.7321C20.9103 18.9126 20.0299 19.0579 19.1022 19.1658C19.7016 18.2444 20.264 17.3002 20.7813 16.3333ZM17.5756 19.307C15.872 19.425 14.1578 19.4237 12.4536 19.3166C11.4852 17.9452 10.6232 16.5028 9.87909 15.0054C10.6196 13.5112 11.4754 12.0716 12.4391 10.7023C14.1445 10.5773 15.8604 10.577 17.5658 10.7031C18.5213 12.0723 19.3758 13.5081 20.1335 14.9888C19.3848 16.4824 18.5245 17.9248 17.5756 19.307ZM21.4034 4.18744C23.1568 5.16801 22.3763 8.65055 21.9933 10.1649C20.8265 9.90384 19.5593 9.70959 18.2328 9.58884C17.4599 8.52191 16.6592 7.55173 15.8554 6.71202C17.0339 5.61038 19.667 3.21646 21.4034 4.18744Z" fill="#53C1DE"/>
</svg>
