<svg width="31" height="30" viewBox="0 0 31 30" fill="none" xmlns="http://www.w3.org/2000/svg">
<path d="M15.185 6.79498C10.34 6.94897 8.90001 10.41 8.57001 12.285C9 11.59 10.355 10.065 12.35 10.065C14.675 10.065 16.445 12.66 17.525 13.47C18.8371 14.4541 21.4737 15.7535 24.935 14.7C27.695 13.86 28.975 10.93 29.255 9.53998C27.92 11.355 25.895 12.4451 23.39 11.16C21.665 10.275 20.375 6.63001 15.185 6.79498Z" fill="#07B6D5"/>
<path d="M8.33 15.03C3.485 15.184 2.045 18.645 1.715 20.52C2.145 19.825 3.5 18.3 5.495 18.3C7.82 18.3 9.59 20.895 10.67 21.705C11.9821 22.6891 14.6187 23.9884 18.08 22.935C20.84 22.095 22.12 19.165 22.4 17.775C21.065 19.59 19.04 20.6801 16.535 19.395C14.81 18.51 13.52 14.865 8.33 15.03Z" fill="#07B6D5"/>
</svg>
